<svg xmlns="http://www.w3.org/2000/svg" viewBox="0 0 800 450" role="img" width="800" height="450">
  <title>Placeholder diagram: Overhook-Underhook Starting Position Game</title>
  <desc>Schematic placeholder to be replaced with the Session 2 source photograph or diagram.</desc>

  <rect width="800" height="450" fill="#F2EFEA"/>
  <rect x="0.5" y="0.5" width="799" height="449" fill="none" stroke="#B9B2A8"/>

  <line x1="60" y1="368" x2="740" y2="368" stroke="#B9B2A8" stroke-width="2"/>

  <!-- left player -->
  <g fill="none" stroke="#1B1A18" stroke-width="6" stroke-linecap="round" stroke-linejoin="round">
    <circle cx="330" cy="150" r="26" fill="#1B1A18" stroke="none"/>
    <path d="M330 176 L330 262"/>
    <path d="M330 262 L300 368"/>
    <path d="M330 262 L362 368"/>
    <path d="M330 198 L406 172"/>   <!-- overhook arm, above -->
    <path d="M330 214 L400 240"/>   <!-- underhook arm, below -->
  </g>

  <!-- right player -->
  <g fill="none" stroke="#1B1A18" stroke-width="6" stroke-linecap="round" stroke-linejoin="round">
    <circle cx="470" cy="150" r="26" fill="#1B1A18" stroke="none"/>
    <path d="M470 176 L470 262"/>
    <path d="M470 262 L440 368"/>
    <path d="M470 262 L502 368"/>
    <path d="M470 198 L394 172"/>
    <path d="M470 214 L400 240"/>
  </g>

  <!-- over / under markers -->
  <circle cx="400" cy="171" r="12" fill="#A23A18"/>
  <circle cx="400" cy="240" r="12" fill="#A23A18"/>
  <g font-family="Georgia, serif" font-size="17" fill="#A23A18">
    <text x="400" y="146" text-anchor="middle">one arm over</text>
    <text x="400" y="278" text-anchor="middle">one arm under</text>
  </g>

  <g font-family="Georgia, serif" font-size="19" fill="#57534C">
    <text x="60" y="406">Both players standing, tied up</text>
    <text x="740" y="406" text-anchor="end">Win: connect your hands</text>
  </g>

  <g font-family="Georgia, serif" fill="#57534C">
    <text x="60" y="52" font-size="13" letter-spacing="2">PLACEHOLDER</text>
    <text x="60" y="76" font-size="16">Replace with the Session 2 source photograph or diagram.</text>
  </g>
</svg>
